# xmcd
#
# Track frame offsets: 
#        182
#        15647
#        39095
#        56500
#        71542
#        102340
#        120095
#        135112
#        154780
#        171540
#        192552
#        208987
#
# Disc length: 2907 seconds
#
# Revision: 4
# Processed by: cddbd v1.5.2PL0 Copyright (c) Steve Scherf et al.
# Submitted via: ExactAudioCopy v0.99pb3
#
DISCID=9d0b590c
DTITLE=Larry McCray - Ambition
DYEAR=1990
DGENRE=Blues
TTITLE0=Nobody Never Hurt Nobody With The Blues
TTITLE1=Count On Me For Love
TTITLE2=One More Lonely Night
TTITLE3=Sally's Got A Friend In New York City
TTITLE4=Country Girl
TTITLE5=Ambition
TTITLE6=I Don't Mind
TTITLE7=Frustrated Baby
TTITLE8=Keep On Walking
TTITLE9=Me And My Baby
TTITLE10=Secret Lover
TTITLE11=The Sun Also Rises In The East
EXTD=more info\nMillenniumMusicProjectFormat, syntax as follows:\nTitl
EXTD=e{Subtitle}[info](Lyricist;Composer;Date,Artist,Location)[info]\n
EXTD=corrections to: windking3@yahoo.com
EXTT0=
EXTT1=
EXTT2=
EXTT3=
EXTT4=
EXTT5=
EXTT6=
EXTT7=
EXTT8=
EXTT9=
EXTT10=
EXTT11=
PLAYORDER=
